<?xml version="1.0" encoding="UTF-8"?>
<svg version="1.1" xmlns="http://www.w3.org/2000/svg" width="48" height="48">
<path d="M0 0 C15.84 0 31.68 0 48 0 C48 15.84 48 31.68 48 48 C32.16 48 16.32 48 0 48 C0 32.16 0 16.32 0 0 Z " fill="#131010" transform="translate(0,0)"/>
<path d="M0 0 C15.84 0 31.68 0 48 0 C48 3.63 48 7.26 48 11 C44.55549263 13.29633824 42.06187717 13.54016485 38 14 C38 14.66 38 15.32 38 16 C36.081875 16.2165625 36.081875 16.2165625 34.125 16.4375 C31.74307106 16.70642746 30.15547309 16.92226346 28 18 C22.52590389 18.47077227 18.17238865 17.87086398 13 16 C10.34071167 15.56733801 7.67960883 15.29773431 5 15 C3.35 14.67 1.7 14.34 0 14 C0 9.38 0 4.76 0 0 Z " fill="#3C3C54" transform="translate(0,0)"/>
<path d="M0 0 C10.89 0 21.78 0 33 0 C33 3.63 33 7.26 33 11 C29.55549263 13.29633824 27.06187717 13.54016485 23 14 C23 14.66 23 15.32 23 16 C20.36 16 17.72 16 15 16 C14 13 13 10 12 7 C9.49552484 5.78130071 9.49552484 5.78130071 7 5 C6.67 6.32 6.34 7.64 6 9 C4.75453595 6.50907189 5.2232422 5.58919267 6 3 C4.02 2.34 2.04 1.68 0 1 C0 0.67 0 0.34 0 0 Z " fill="#3C3B52" transform="translate(15,0)"/>
<path d="M0 0 C7.84966639 -0.24919576 14.97120402 0.24077878 22 4 C21.64766839 9.4611399 21.64766839 9.4611399 21 12 C18.9375 13.5 18.9375 13.5 17 14 C16.67 13.01 16.34 12.02 16 11 C13.36 11.33 10.72 11.66 8 12 C7.34 10.35 6.68 8.7 6 7 C5.67 7.99 5.34 8.98 5 10 C4.01 9.67 3.02 9.34 2 9 C1.67 9.99 1.34 10.98 1 12 C0 11 0 11 -0.09765625 8.49609375 C-0.08605469 7.48675781 -0.07445312 6.47742188 -0.0625 5.4375 C-0.05347656 4.42558594 -0.04445312 3.41367187 -0.03515625 2.37109375 C-0.02355469 1.58863281 -0.01195312 0.80617188 0 0 Z " fill="#23212E" transform="translate(0,14)"/>
<path d="M0 0 C0 1.65 0 3.3 0 5 C-0.66 5 -1.32 5 -2 5 C-2 4.34 -2 3.68 -2 3 C-5.65316671 4.24976756 -6.78065836 4.67098753 -9 8 C-9.81897838 12.09489191 -10.03678735 15.00096309 -9 19 C-11 21 -11 21 -13.3828125 21.1953125 C-14.28773437 21.17210938 -15.19265625 21.14890625 -16.125 21.125 C-17.49011719 21.09792969 -17.49011719 21.09792969 -18.8828125 21.0703125 C-19.58148437 21.04710938 -20.28015625 21.02390625 -21 21 C-20.67 19.02 -20.34 17.04 -20 15 C-20.66 14.67 -21.32 14.34 -22 14 C-21.34 14 -20.68 14 -20 14 C-20.103125 12.906875 -20.20625 11.81375 -20.3125 10.6875 C-20 7 -20 7 -17.8125 5 C-14.67118829 3.88308917 -13.13977726 4.01321286 -10 5 C-10 4.34 -10 3.68 -10 3 C-8.52144705 2.49818809 -7.04213942 1.99859924 -5.5625 1.5 C-4.73878906 1.2215625 -3.91507813 0.943125 -3.06640625 0.65625 C-1 0 -1 0 0 0 Z " fill="#211F29" transform="translate(48,11)"/>
<path d="M0 0 C2.97 0.495 2.97 0.495 6 1 C6.59732819 3.76264289 7 6.16032769 7 9 C7.66 9.33 8.32 9.66 9 10 C7 12 7 12 5.125 12.23046875 C4.42375 12.21628906 3.7225 12.20210937 3 12.1875 C2.29875 12.18105469 1.5975 12.17460937 0.875 12.16796875 C-1 12 -1 12 -3 11 C-3.125 8.625 -3.125 8.625 -3 6 C-2.34 5.34 -1.68 4.68 -1 4 C-0.3574765 1.93125966 -0.3574765 1.93125966 0 0 Z " fill="#633A47" transform="translate(22,5)"/>
<path d="M0 0 C5.61 0 11.22 0 17 0 C16.01 1.485 16.01 1.485 15 3 C14.34 3 13.68 3 13 3 C12.34 4.32 11.68 5.64 11 7 C9.68 6.34 8.36 5.68 7 5 C6.67 6.32 6.34 7.64 6 9 C4.75453595 6.50907189 5.2232422 5.58919267 6 3 C4.02 2.34 2.04 1.68 0 1 C0 0.67 0 0.34 0 0 Z " fill="#190E11" transform="translate(15,0)"/>
<path d="M0 0 C1.9375 0.3125 1.9375 0.3125 4 1 C5.15941038 4.47823115 4.70820884 6.45895578 4 10 C2.68 10.33 1.36 10.66 0 11 C-1.28571429 3.57142857 -1.28571429 3.57142857 0 0 Z " fill="#D15C1B" transform="translate(22,5)"/>
<path d="M0 0 C0.33 0.66 0.66 1.32 1 2 C0.67 2.66 0.34 3.32 0 4 C0.99 4 1.98 4 3 4 C3.625 5.8125 3.625 5.8125 4 8 C3.01 9.485 3.01 9.485 2 11 C-0.86724686 10.42655063 -1.8614515 10.1385485 -4 8 C-3.34 7.67 -2.68 7.34 -2 7 C-1.67 6.01 -1.34 5.02 -1 4 C-1.66 3.67 -2.32 3.34 -3 3 C-2.01 2.01 -1.02 1.02 0 0 Z " fill="#211411" transform="translate(19,26)"/>
<path d="M0 0 C-0.61875 0.2475 -1.2375 0.495 -1.875 0.75 C-4.35068687 2.20628639 -4.95125002 3.37812506 -6 6 C-7.32 5.34 -8.64 4.68 -10 4 C-10.33 5.32 -10.66 6.64 -11 8 C-11.33 7.34 -11.66 6.68 -12 6 C-11 3 -11 3 -9.2578125 1.796875 C-8.55398437 1.45140625 -7.85015625 1.1059375 -7.125 0.75 C-6.42632812 0.39421875 -5.72765625 0.0384375 -5.0078125 -0.328125 C-3 -1 -3 -1 0 0 Z " fill="#311419" transform="translate(32,1)"/>
<path d="M0 0 C0 1.65 0 3.3 0 5 C-0.66 5 -1.32 5 -2 5 C-2 4.34 -2 3.68 -2 3 C-4.64 3.66 -7.28 4.32 -10 5 C-10 4.34 -10 3.68 -10 3 C-8.52144705 2.49818809 -7.04213942 1.99859924 -5.5625 1.5 C-4.73878906 1.2215625 -3.91507813 0.943125 -3.06640625 0.65625 C-1 0 -1 0 0 0 Z " fill="#2A2939" transform="translate(48,11)"/>
<path d="M0 0 C0.33 0.66 0.66 1.32 1 2 C0.67 2.66 0.34 3.32 0 4 C0.99 4 1.98 4 3 4 C2.67 4.99 2.34 5.98 2 7 C1.01 7.33 0.02 7.66 -1 8 C-1 6.68 -1 5.36 -1 4 C-1.66 3.67 -2.32 3.34 -3 3 C-2.01 2.01 -1.02 1.02 0 0 Z " fill="#1B181F" transform="translate(19,26)"/>
<path d="M0 0 C1.98 0 3.96 0 6 0 C4.68 1.32 3.36 2.64 2 4 C1.01 3.67 0.02 3.34 -1 3 C-0.67 2.01 -0.34 1.02 0 0 Z " fill="#2A1213" transform="translate(22,17)"/>
</svg>
